<svg xmlns="http://www.w3.org/2000/svg" width="1600" height="933" viewBox="0 0 1600 933" version="1.1">
	<path d="M 354.149 179.640 C 352.306 180.579, 349.632 183.110, 348.207 185.263 C 343.024 193.096, 345.654 203.189, 354.119 207.947 C 363.518 213.229, 375.400 207.250, 377.627 196.117 C 378.539 191.556, 375.552 184.523, 371.339 181.309 C 366.874 177.904, 359.047 177.144, 354.149 179.640 M 396.990 180.250 C 391.312 184.115, 389.500 187.440, 389.500 194 C 389.500 203.735, 395.265 209.500, 405 209.500 C 411.560 209.500, 414.885 207.688, 418.750 202.010 C 427.639 188.949, 410.051 171.361, 396.990 180.250 M 362.127 265.250 C 352.597 288.488, 335.834 329.325, 324.875 356 L 304.951 404.500 294.742 404.500 C 285.814 404.500, 284.489 404.720, 284.193 406.250 C 283.877 407.878, 285.541 408, 308 408 C 330.459 408, 332.123 407.878, 331.807 406.250 C 331.510 404.713, 330.161 404.500, 320.733 404.500 C 314.218 404.500, 310.012 404.107, 310.035 403.500 C 310.056 402.950, 316.057 388.100, 323.372 370.500 L 336.670 338.500 366.723 338.236 C 390.208 338.029, 396.888 338.247, 397.293 339.236 C 397.578 339.931, 403.929 354.596, 411.406 371.824 C 418.883 389.053, 425.001 403.453, 425.001 403.824 C 425.002 404.196, 419.946 404.500, 413.767 404.500 C 403.862 404.500, 402.491 404.707, 402.192 406.250 C 401.874 407.895, 404.422 408, 444.500 408 C 484.576 408, 487.127 407.895, 486.812 406.250 C 486.526 404.749, 484.931 404.429, 475.608 404 L 464.738 403.500 425.619 313.256 L 386.500 223.011 382.977 223.006 L 379.454 223 362.127 265.250 M 739 227.555 C 722.158 231.172, 704.426 244.454, 697.943 258.309 C 689.238 276.910, 692.827 298.832, 706.876 312.873 C 715.697 321.690, 726.468 326.663, 755.960 335.535 C 774.917 341.239, 783.056 345.214, 789.180 351.761 C 796.333 359.409, 797.878 368.835, 793.995 381.145 C 790.431 392.444, 782.402 400.723, 770.594 405.274 C 763.950 407.835, 745.555 408.803, 737.890 406.996 C 718.522 402.428, 702.634 385.100, 695.658 360.937 C 693.727 354.250, 692.836 352.500, 691.361 352.500 C 689.597 352.500, 689.486 353.953, 689.234 380.250 L 688.968 408 691.369 408 C 692.827 408, 694.414 407.018, 695.408 405.500 C 697.632 402.106, 702.112 402.207, 716.300 405.973 C 722.460 407.608, 731.775 409.684, 737 410.586 C 765.817 415.563, 794.928 404.481, 809.488 382.992 C 817.570 371.064, 820.884 357.358, 818.977 343.750 C 817.574 333.741, 813.933 326.755, 806.062 318.969 C 797.311 310.313, 788.348 305.976, 760 296.679 C 735.547 288.659, 727.123 284.913, 720.898 279.289 C 712.131 271.368, 710.059 260.477, 715.291 249.818 C 721.859 236.440, 736.735 229.286, 756.057 230.217 C 766.317 230.711, 773.329 233.099, 780.433 238.516 C 785.973 242.743, 792.785 253.757, 797.489 266.095 C 800.209 273.229, 802.429 277.621, 803.419 277.823 C 804.826 278.111, 805 275.493, 805 254.073 C 805 231.156, 804.909 230, 803.115 230 C 802.078 230, 800.493 231.125, 799.592 232.500 C 797.427 235.804, 793.124 235.786, 784.273 232.437 C 767.789 226.201, 752.822 224.586, 739 227.555 M 1233 227.427 C 1194.145 235.609, 1162.614 266.524, 1156.017 302.906 C 1154.426 311.682, 1154.601 329.213, 1156.364 337.670 C 1164.094 374.744, 1195.080 403.776, 1234.213 410.609 C 1252.461 413.796, 1265.271 411.547, 1291 400.640 C 1302.199 395.892, 1307.998 395.716, 1312 400 C 1313.541 401.650, 1315.522 403, 1316.401 403 C 1317.830 403, 1318 399.908, 1318 374 L 1318 345 1326 345 C 1333.333 345, 1334 344.833, 1334 343 C 1334 341.035, 1333.333 341, 1295.500 341 C 1257.861 341, 1257 341.044, 1257 342.970 C 1257 344.811, 1257.825 344.959, 1269.604 345.220 L 1282.207 345.500 1282.060 360.040 C 1281.979 368.037, 1281.292 377.546, 1280.533 381.171 C 1276.691 399.534, 1266.204 408.030, 1247.434 407.983 C 1239.073 407.962, 1228.284 405.800, 1222.453 402.977 C 1208.462 396.204, 1200.129 380.487, 1197.031 355.026 C 1195.433 341.895, 1195.724 289.388, 1197.458 278 C 1199.999 261.314, 1204.307 251.526, 1212.875 242.978 C 1222.005 233.869, 1232.577 230, 1248.339 230 C 1270.154 230, 1284.426 239.580, 1294.953 261.287 C 1297.677 266.904, 1300.431 273.637, 1301.072 276.250 C 1302.056 280.261, 1302.608 281, 1304.619 281 L 1307 281 1307 255.500 L 1307 230 1304.615 230 C 1303.147 230, 1301.572 231.005, 1300.518 232.613 C 1298.921 235.050, 1298.423 235.190, 1293.153 234.688 C 1290.044 234.391, 1281.650 232.508, 1274.500 230.504 C 1259.209 226.216, 1244.076 225.094, 1233 227.427 M 84 232 C 84 233.884, 84.667 234, 95.500 234 L 107 234 107 318.967 L 107 403.934 95.762 404.217 C 85.986 404.463, 84.480 404.728, 84.189 406.250 C 83.874 407.894, 86.375 408, 125.500 408 C 164.626 408, 167.126 407.894, 166.808 406.250 C 166.509 404.707, 165.138 404.500, 155.233 404.500 L 143.998 404.500 143.999 361.750 L 144 319 179.500 319 L 215 319 215.001 361.750 L 215.002 404.500 203.767 404.500 C 193.862 404.500, 192.491 404.707, 192.192 406.250 C 191.874 407.894, 194.374 408, 233.500 408 C 272.625 408, 275.126 407.894, 274.811 406.250 C 274.520 404.728, 273.014 404.463, 263.238 404.217 L 252 403.934 252 318.967 L 252 234 263.500 234 C 274.354 234, 275 233.887, 275 231.989 C 275 230.002, 274.496 229.981, 233.750 230.239 C 197.866 230.466, 192.500 230.695, 192.500 232 C 192.500 233.228, 194.542 233.551, 203.750 233.783 L 215 234.066 215 274.783 L 215 315.500 179.500 315.500 L 144 315.500 144 274.783 L 144 234.066 155.238 233.783 C 165.014 233.537, 166.520 233.272, 166.811 231.750 C 167.126 230.106, 164.628 230, 125.573 230 C 84.667 230, 84 230.032, 84 232 M 498 232 C 498 233.884, 498.667 234, 509.500 234 L 521 234 521.001 319.250 L 521.002 404.500 509.767 404.500 C 499.862 404.500, 498.491 404.707, 498.192 406.250 C 497.872 407.905, 502.181 408, 577.442 408 L 657.031 408 656.766 379.750 C 656.461 347.333, 655.813 345.226, 650.840 360.482 C 644.224 380.781, 631.719 395.548, 615.957 401.675 C 612.280 403.105, 606.818 403.503, 584.749 403.954 L 557.997 404.500 557.999 319.250 L 558 234 569.500 234 C 580.333 234, 581 233.884, 581 232 C 581 230.032, 580.333 230, 539.500 230 C 498.667 230, 498 230.032, 498 232 M 852 232 C 852 233.884, 852.667 234, 863.500 234 L 875 234 875.001 319.250 L 875.002 404.500 863.767 404.500 C 853.862 404.500, 852.491 404.707, 852.192 406.250 C 851.874 407.894, 854.374 408, 893.500 408 C 932.626 408, 935.126 407.894, 934.808 406.250 C 934.509 404.707, 933.138 404.500, 923.233 404.500 L 911.998 404.500 911.999 319.250 L 912 234 923.500 234 C 934.333 234, 935 233.884, 935 232 C 935 230.032, 934.333 230, 893.500 230 C 852.667 230, 852 230.032, 852 232 M 959 232 C 959 233.884, 959.667 234, 970.500 234 L 982 234 982.001 319.250 L 982.002 404.500 970.767 404.500 C 960.862 404.500, 959.491 404.707, 959.192 406.250 C 958.877 407.880, 960.612 408, 984.500 408 C 1008.388 408, 1010.123 407.880, 1009.808 406.250 C 1009.509 404.707, 1008.138 404.500, 998.233 404.500 L 986.998 404.500 986.999 326.550 C 986.999 282.457, 987.377 249.013, 987.868 249.550 C 988.345 250.073, 1013.590 285.938, 1043.969 329.250 C 1098.714 407.303, 1099.232 408, 1102.601 408 L 1106 408 1106 321 L 1106 234 1117.500 234 C 1128.333 234, 1129 233.884, 1129 232 C 1129 230.053, 1128.333 230, 1104 230 C 1079.667 230, 1079 230.053, 1079 232 C 1079 233.884, 1079.667 234, 1090.500 234 L 1102 234 1102 291.665 L 1102 349.330 1060.318 289.665 L 1018.636 230 988.818 230 C 959.667 230, 959 230.045, 959 232 M 1353 232 C 1353 233.884, 1353.667 234, 1364.500 234 L 1376 234 1376.001 319.250 L 1376.002 404.500 1364.767 404.500 C 1354.862 404.500, 1353.491 404.707, 1353.192 406.250 C 1352.872 407.905, 1357.204 408, 1432.927 408 L 1513 408 1513 380.427 C 1513 355.703, 1512.835 352.887, 1511.403 353.177 C 1510.409 353.378, 1508.960 356.146, 1507.568 360.500 C 1501.177 380.492, 1489.059 394.840, 1473.225 401.160 C 1467.897 403.287, 1465.612 403.482, 1440.249 403.973 L 1412.997 404.500 1412.999 359.750 L 1413 315 1424.822 315 C 1446.929 315, 1454.042 320.325, 1461.549 342.496 C 1463.513 348.298, 1465.113 351.500, 1466.049 351.500 C 1467.292 351.500, 1467.500 345.919, 1467.500 312.500 C 1467.500 279.952, 1467.271 273.500, 1466.116 273.500 C 1465.255 273.500, 1463.544 277.090, 1461.589 283 C 1456.759 297.601, 1450.810 304.967, 1440.931 308.582 C 1438.271 309.555, 1431.804 310.418, 1424.750 310.739 L 1413 311.275 1413 272.563 L 1413 233.851 1438.750 234.175 L 1464.500 234.500 1471.325 237.733 C 1481.240 242.429, 1489.937 251.454, 1495.040 262.345 C 1497.218 266.992, 1499 271.291, 1499 271.897 C 1499 272.504, 1499.900 273, 1501 273 C 1502.938 273, 1503 272.333, 1503 251.500 L 1503 230 1428 230 C 1353.667 230, 1353 230.018, 1353 232 M 364.476 270.500 C 358.980 283.323, 339 332.471, 339 333.168 C 339 333.626, 351.600 334, 367 334 C 382.400 334, 395 333.825, 395 333.611 C 395 333.397, 388.880 319.110, 381.399 301.861 C 373.919 284.613, 367.436 269.600, 366.994 268.500 C 366.287 266.740, 365.984 266.980, 364.476 270.500 M 675.748 495.427 C 664.688 499.374, 656.689 511.895, 658.657 522.181 C 662.101 540.179, 681.710 549.270, 697.982 540.413 C 716.958 530.085, 714.589 502.500, 694.128 495.528 C 688.667 493.667, 680.800 493.624, 675.748 495.427 M 679.144 498.562 C 675.865 500.927, 674.222 505.420, 673.468 514.082 C 672.697 522.936, 674.248 533.510, 676.829 536.989 C 679.313 540.338, 684.851 541.719, 688.964 540.015 C 693.804 538.010, 695.338 533.996, 695.819 522.075 C 696.291 510.376, 694.892 502.118, 691.994 499.495 C 689.208 496.973, 682.066 496.455, 679.144 498.562 M 681.465 551.250 C 680.639 553.038, 663.848 593.808, 644.154 641.850 L 608.345 729.200 597.938 729.350 C 588.893 729.480, 587.487 729.729, 587.192 731.250 C 586.877 732.878, 588.541 733, 611 733 C 633.459 733, 635.123 732.878, 634.807 731.250 C 634.510 729.713, 633.161 729.500, 623.733 729.500 C 617.828 729.500, 612.998 729.254, 612.999 728.953 C 612.999 728.653, 618.890 714.253, 626.090 696.953 C 633.289 679.654, 639.415 664.931, 639.702 664.236 C 640.111 663.247, 646.787 663.029, 670.242 663.236 L 700.258 663.500 714.120 695.500 C 721.744 713.100, 727.986 727.837, 727.991 728.250 C 727.996 728.663, 723.050 729, 717 729 C 706.667 729, 706 729.121, 706 731 C 706 732.968, 706.667 733, 748.073 733 C 787.606 733, 790.126 732.894, 789.808 731.250 C 789.513 729.729, 788.107 729.480, 779.058 729.350 L 768.646 729.200 766.976 725.850 C 766.058 724.008, 748.296 683.237, 727.505 635.250 L 689.703 548 686.335 548 C 683.511 548, 682.725 548.524, 681.465 551.250 M 1098.199 555.197 C 1096.531 559.213, 1080.058 599.320, 1061.593 644.322 C 1043.127 689.324, 1027.626 726.845, 1027.146 727.703 C 1026.434 728.976, 1024.414 729.228, 1016.137 729.074 C 1006.512 728.895, 1006 728.990, 1006 730.943 C 1006 732.961, 1006.449 733, 1029.573 733 C 1051.485 733, 1053.123 732.877, 1052.812 731.250 C 1052.527 729.754, 1050.946 729.427, 1041.928 729 L 1031.379 728.500 1044.939 695.757 L 1058.500 663.015 1088.500 663.008 L 1118.500 663.001 1132.203 694.750 C 1139.740 712.213, 1146.158 727.175, 1146.466 728 C 1146.942 729.278, 1145.357 729.500, 1135.778 729.500 C 1125.863 729.500, 1124.491 729.707, 1124.192 731.250 C 1123.874 732.894, 1126.394 733, 1165.927 733 C 1207.713 733, 1208 732.986, 1208 730.944 C 1208 728.988, 1207.488 728.898, 1197.381 729.071 L 1186.762 729.253 1147.547 638.877 L 1108.331 548.500 1104.781 548.197 C 1101.245 547.894, 1101.219 547.922, 1098.199 555.197 M 465.174 552.054 C 457.529 553.419, 445.842 558.542, 439.177 563.449 C 431.302 569.246, 426.410 575.142, 422.127 584 C 418.526 591.446, 418.500 591.594, 418.500 604.554 L 418.500 617.607 422.246 625.185 C 427.198 635.202, 435.890 643.447, 447.263 648.916 C 451.793 651.094, 464.500 655.645, 475.500 659.029 C 486.500 662.412, 498.379 666.545, 501.898 668.212 C 509.026 671.590, 516.198 678.136, 518.296 683.182 C 524.999 699.300, 515.690 720.759, 498.602 728.582 C 491.808 731.692, 484.695 733, 474.574 733 C 459.550 733, 449.090 728.796, 438.508 718.505 C 430.585 710.800, 424.950 701.179, 420.640 688 C 415.145 671.195, 414.545 672.811, 414.234 705.250 C 413.978 731.944, 414.041 733, 415.869 733 C 416.915 733, 418.507 731.875, 419.408 730.500 C 421.672 727.045, 425.580 727.217, 442.587 731.519 C 462.426 736.538, 472.724 737.692, 484.446 736.212 C 513.992 732.480, 537.227 713.298, 542.533 688.257 C 546.421 669.909, 542.114 654.949, 529.563 643.208 C 520.859 635.066, 512.468 631.070, 484.826 621.906 C 459.569 613.532, 451.833 610.117, 445.134 604.382 C 434.050 594.896, 434.275 577.620, 445.626 566.564 C 459.300 553.245, 486.489 550.984, 502.286 561.853 C 510.804 567.713, 517.292 577.938, 523.509 595.294 C 525.572 601.056, 526.718 603.009, 527.900 602.781 C 529.304 602.511, 529.533 599.565, 529.768 578.737 L 530.036 555 527.679 555 C 526.134 555, 524.928 555.862, 524.182 557.500 C 522.535 561.115, 518.286 560.780, 503.733 555.888 C 493.098 552.314, 490.128 551.732, 481 551.440 C 475.225 551.255, 468.103 551.531, 465.174 552.054 M 851.750 554.749 C 825.835 555.024, 825 555.095, 825 557.016 C 825 558.880, 825.698 559, 836.500 559 L 848 559 848 643.967 L 848 728.934 836.762 729.217 C 826.986 729.463, 825.480 729.728, 825.189 731.250 C 824.874 732.894, 827.375 733, 866.500 733 C 905.626 733, 908.126 732.894, 907.808 731.250 C 907.509 729.707, 906.138 729.500, 896.233 729.500 L 884.998 729.500 884.999 689.378 L 885 649.256 899.250 648.542 C 916.021 647.701, 926.771 645.995, 936.745 642.593 C 953.085 637.021, 964.133 628.539, 969.627 617.351 C 972.262 611.984, 972.500 610.590, 972.500 600.500 C 972.500 590.526, 972.244 588.978, 969.752 583.904 C 968.154 580.650, 964.511 575.930, 961.047 572.626 C 947.497 559.701, 924.349 553.617, 891.076 554.233 C 884.159 554.361, 866.462 554.593, 851.750 554.749 M 886.250 558.593 C 885.278 559.039, 885 568.723, 885 602.083 L 885 645 890.750 644.992 C 905.282 644.973, 916.646 641.278, 922.842 634.556 C 928.741 628.156, 931.140 620.710, 931.749 606.911 C 932.862 581.728, 926.230 566.247, 912.041 560.899 C 906.590 558.845, 889.109 557.282, 886.250 558.593 M 668.189 594 C 667.665 595.375, 661.559 610.330, 654.618 627.234 C 647.678 644.138, 642 658.201, 642 658.484 C 642 658.768, 654.600 659, 670 659 C 685.400 659, 698 658.717, 698 658.372 C 698 657.702, 671.329 595.534, 669.954 593 C 669.303 591.799, 668.951 591.998, 668.189 594 M 1073.854 625.180 L 1060.208 658.500 1074.665 658.777 C 1082.617 658.929, 1095.340 658.929, 1102.938 658.777 L 1116.754 658.500 1102.951 626.500 C 1095.359 608.900, 1088.776 593.906, 1088.324 593.180 C 1087.787 592.320, 1082.747 603.465, 1073.854 625.180" stroke="none" fill="black" fill-rule="evenodd"/>
</svg>